<?xml version="1.0" standalone="no"?>
<!DOCTYPE svg PUBLIC "-//W3C//DTD SVG 20010904//EN"
 "http://www.w3.org/TR/2001/REC-SVG-20010904/DTD/svg10.dtd">
<svg version="1.0" xmlns="http://www.w3.org/2000/svg"
 width="700.000000pt" height="700.000000pt" viewBox="0 0 700.000000 700.000000"
 preserveAspectRatio="xMidYMid meet">
<metadata>
Created by potrace 1.14, written by Peter Selinger 2001-2017
</metadata>
<g transform="translate(0.000000,700.000000) scale(0.100000,-0.100000)"
fill="#000000" stroke="none">
<path d="M3287 6894 c-1 -1 -45 -4 -97 -8 -1469 -95 -2713 -1178 -3013 -2622
-14 -66 -28 -137 -30 -159 -3 -22 -10 -76 -16 -120 -6 -44 -13 -111 -16 -150
-7 -74 -8 -436 -1 -495 20 -200 29 -268 41 -330 3 -14 7 -36 10 -50 17 -89 30
-146 52 -225 27 -99 70 -239 83 -270 4 -11 25 -63 45 -115 76 -190 193 -411
318 -600 58 -87 196 -272 216 -290 3 -3 37 -40 75 -84 263 -297 619 -568 981
-745 88 -43 185 -89 215 -101 30 -12 64 -26 75 -31 124 -53 424 -137 580 -164
17 -3 41 -7 55 -10 13 -2 42 -7 65 -10 22 -3 51 -8 65 -10 14 -3 53 -7 88 -10
l62 -5 0 745 c0 410 -1 745 -3 745 -2 0 -93 -23 -202 -51 -764 -193 -990 -251
-997 -255 -13 -9 -9 18 13 76 11 30 51 141 89 245 37 105 73 201 78 215 6 14
25 64 42 111 36 103 33 121 -31 164 -24 17 -46 32 -49 35 -3 3 -138 98 -300
212 -733 512 -1025 719 -1028 728 -2 6 2 10 8 10 21 0 465 171 478 184 27 26
17 76 -39 203 -11 23 -19 44 -19 47 0 3 -20 56 -44 118 -42 108 -207 532 -222
572 -9 22 -27 25 221 -34 94 -23 178 -43 188 -45 10 -2 26 -6 35 -9 9 -3 28
-7 42 -10 14 -2 102 -23 195 -45 94 -23 178 -43 187 -45 20 -5 58 28 59 52 0
9 2 25 4 35 2 9 6 50 10 90 3 39 8 79 10 87 2 8 6 47 10 85 3 39 7 86 10 105
2 19 7 60 11 90 3 30 7 56 8 57 1 2 58 -66 126 -150 69 -83 129 -157 135 -163
5 -6 84 -103 175 -215 91 -112 180 -219 198 -238 29 -30 35 -32 48 -19 13 13
13 25 -1 109 -9 52 -18 105 -20 119 -8 52 -14 88 -30 180 -9 52 -18 106 -20
120 -6 38 -44 262 -49 285 -2 11 -7 42 -10 68 -4 27 -9 59 -12 70 -2 12 -11
65 -20 117 -8 52 -17 106 -20 120 -2 14 -7 41 -10 60 -3 19 -17 100 -31 180
-13 80 -29 174 -34 209 -5 35 -12 67 -15 72 -13 22 20 4 92 -49 329 -243 473
-347 496 -356 23 -9 31 -7 53 14 14 13 25 28 25 34 0 5 97 255 217 555 l216
544 39 -99 c21 -54 42 -108 47 -119 5 -11 68 -171 141 -355 72 -184 136 -346
142 -360 20 -46 27 -65 49 -124 23 -64 49 -96 78 -96 10 0 148 96 307 213 159
118 290 213 291 212 1 0 -7 -55 -18 -121 -11 -65 -22 -132 -25 -149 -2 -16 -9
-55 -14 -85 -5 -30 -11 -68 -13 -85 -3 -16 -10 -57 -16 -90 -6 -33 -13 -76
-16 -95 -3 -19 -10 -57 -15 -85 -6 -27 -12 -67 -15 -89 -2 -21 -7 -46 -9 -55
-3 -9 -7 -34 -11 -56 -3 -22 -19 -121 -36 -220 -16 -99 -32 -196 -35 -215 -2
-19 -7 -44 -9 -56 -3 -12 -7 -38 -11 -58 -3 -21 -14 -85 -23 -143 -16 -91 -16
-106 -4 -119 20 -20 30 -12 118 96 43 52 92 113 110 135 18 22 65 79 103 127
39 47 80 97 90 110 49 57 225 275 238 292 13 20 26 17 30 -7 1 -7 5 -43 9 -82
4 -38 8 -83 10 -100 2 -16 6 -57 10 -90 3 -33 8 -71 10 -85 2 -14 6 -56 10
-95 7 -76 16 -100 43 -114 12 -6 92 9 262 50 135 33 254 61 265 64 11 2 29 6
40 9 11 3 76 18 145 34 69 17 137 33 153 37 15 4 27 3 27 -1 0 -8 -222 -587
-241 -629 -31 -69 -99 -260 -99 -279 0 -12 6 -29 13 -38 6 -9 118 -55 247
-103 129 -47 238 -89 242 -93 5 -6 -156 -123 -516 -373 -45 -31 -252 -176
-461 -322 -209 -147 -388 -272 -398 -279 -44 -30 -57 -47 -57 -72 0 -14 39
-133 86 -264 47 -130 97 -268 111 -307 13 -38 33 -90 43 -115 20 -48 17 -65
-9 -54 -9 3 -56 17 -106 29 -49 13 -173 44 -274 70 -101 26 -191 48 -200 50
-9 2 -86 22 -171 44 -306 79 -434 110 -439 106 -5 -2 -6 -1379 -2 -1468 1 -15
8 -17 49 -13 89 9 232 29 292 41 14 3 41 8 60 11 203 36 513 141 762 257 127
59 429 235 458 267 3 3 25 19 49 35 139 94 369 299 514 460 378 419 637 911
768 1460 16 66 31 136 34 155 3 20 7 45 9 57 3 12 7 43 11 70 4 26 9 59 11 73
26 165 26 638 0 820 -47 325 -113 575 -223 845 -107 264 -262 534 -422 739
-25 32 -55 71 -66 86 -28 38 -146 170 -220 244 -487 491 -1115 819 -1785 932
-14 3 -36 7 -50 9 -14 3 -47 8 -75 11 -27 3 -61 7 -75 9 -81 11 -483 26 -493
19z"/>
</g>
</svg>
