<svg xmlns="http://www.w3.org/2000/svg" xml:space="preserve" id="svg63" x="0" y="0" version="1.1" viewBox="0 0 163 29">
  <style id="style55">
    .st0{fill:#7015a0}
  </style>
  <path id="path57" d="M0 1.07h10.46c6.05 0 10.38 3.54 10.38 9.55 0 5.29-4.34 9.74-12.36 9.74H6.5v7.61H0Zm6.5 14.3h2.21c4.03 0 5.48-2.09 5.48-4.6 0-2.7-1.1-4.64-4.56-4.64H6.51v9.24zm18.7-14.3h6.47v10.92h11.41V1.07h6.47v26.89h-6.47V16.89H31.67v11.07H25.2Z" class="st0"/>
  <path id="path59" d="M89.88 0c-7.87 0-14.26 6.38-14.26 14.26 0 7.47 5.75 13.59 13.07 14.2v-6.43l-5.24 1.33 1.12-3.08c.04-.12 0-.26-.1-.33l-6.11-4.29 2.06-.77c.07-.03.12-.08.14-.16.03-.07.03-.14 0-.2l-1.49-3.84 3.74.89h.01c.14.03.26-.08.28-.23l.26-2.39 2.79 3.41c.02.03.07.05.11.04.07-.01.11-.08.1-.16l-1.23-7.32 2.46 1.81c.02.01.03.02.04.02.13.06.27 0 .33-.14l1.91-4.8 1.9 4.8c.01.01.01.03.02.04.08.13.23.16.35.08l2.46-1.81-1.23 7.32c-.01.05.01.1.04.13.03.02.06.04.09.03.03 0 .06-.01.09-.04l2.78-3.41.26 2.39c.01.08.05.16.11.19.06.04.13.06.19.04l3.73-.89-1.49 3.84v.01c-.05.15.02.3.15.35l2.06.77-6.12 4.29c-.1.07-.14.21-.1.33l1.12 3.09-5.27-1.34v6.43c7.34-.58 13.11-6.71 13.11-14.2C104.14 6.38 97.76 0 89.88 0Z" style="clip-rule:evenodd;fill:#548b35;fill-rule:evenodd"/>
  <path id="path61" d="M72.74 22.87H62.8V1.08h-6.47v26.89h20.14c-1.5-1.48-2.77-3.2-3.73-5.1zm72.24-21.8h8.33l9.05 26.89h-6.69l-2.55-7.87h-9.09l-2.93 7.87h-6.47zm6.62 14.34-2.7-10.34-3.16 10.34zm-20.48 12.55 1.88-4.9c-2.06-.72-3.41-1.67-4.63-2.98l-2.74-2.97c2.89-1.64 4.34-4.26 4.34-7.26 0-6.01-4.34-8.79-10.38-8.79h-10.46v26.89h6.5v-9.28h1.98c.49 0 .99 0 1.45-.04l3.04 3.54c1.91 2.22 3.85 4.2 6.54 5.32.78.34 1.63.47 2.48.47zm-13.28-13.8h-2.21V6.17h3.12c3.46 0 4.56 1.14 4.56 3.84 0 2.55-1.63 4.15-5.47 4.15z" class="st0"/>
</svg>